<?xml version="1.0" standalone="no"?><!DOCTYPE svg PUBLIC "-//W3C//DTD SVG 1.1//EN" "http://www.w3.org/Graphics/SVG/1.1/DTD/svg11.dtd"><svg width="100%" height="100%" viewBox="0 0 573 140" version="1.1" xmlns="http://www.w3.org/2000/svg" xmlns:xlink="http://www.w3.org/1999/xlink" xml:space="preserve" style="fill-rule:evenodd;clip-rule:evenodd;stroke-linejoin:round;stroke-miterlimit:1.41421;"><path d="M284.546,64.3849c-9.14055,15.5776 -18.2811,25.748 -23.9457,25.748c-2.18858,0 -5.02087,-1.54488 1.02992,-16.35l6.69449,-16.7362c2.70354,-6.69449 3.99094,-11.3291 3.99094,-14.9339c0,-6.82323 -4.24843,-10.8142 -11.5866,-10.8142c-8.88307,0 -17.3799,6.05079 -19.9547,8.49685l2.70354,-6.82323l-18.1524,0l-27.0354,66.8161l18.1524,0l18.0236,-44.5441c5.53583,-6.30827 11.4579,-9.14055 14.8051,-9.14055c1.9311,0 3.34724,1.02992 3.34724,2.70354c0,1.9311 -1.9311,6.82323 -4.50591,13.0028l-2.96102,7.46693c-9.14055,22.787 -3.47598,32.185 9.01181,32.185c14.6764,0 26.6492,-14.4189 36.9484,-32.3138c-0.772441,-2.18858 -4.11969,-4.63465 -6.56575,-4.76339Z" style="fill:#6dbcdb;"/><text x="0.545472px" y="99.7884px" style="font-family:Thirsty Script Bold;font-size:128.74px;fill:#6dbcdb;">Mo<tspan x="282.229px " y="99.7884px ">k</tspan>eys&apos;</text></svg>