<?xml version="1.0" standalone="no"?>
<!DOCTYPE svg PUBLIC "-//W3C//DTD SVG 1.1//EN" "http://www.w3.org/Graphics/SVG/1.1/DTD/svg11.dtd">
<svg width="100%" height="100%" viewBox="0 0 1181 422" version="1.1" xmlns="http://www.w3.org/2000/svg" xmlns:xlink="http://www.w3.org/1999/xlink" xml:space="preserve" style="fill-rule:evenodd;clip-rule:evenodd;stroke-linejoin:round;stroke-miterlimit:1.41421;">
    <g id="Monkeys">
        <path d="M223.964,345.326c-8.91973,-0.260427 -21.6013,-0.0214234 -38.7768,0c-17.3102,0.0215915 -32.5653,0 -40.4181,0c-7.59919,0 17.4871,23.2181 38.0317,23.7813c25.5843,0.701439 55.1008,-23.3744 41.1632,-23.7813ZM137.888,335.356c17.781,3.61798 75.789,4.11431 93.9889,1.68386c7.35816,-0.982619 15.7684,-8.86405 15.2109,-16.2666c-1.38586,-18.4012 -7.69032,-52.5449 -41.4756,-59.5293c-11.6624,-2.41097 -24.1425,-2.838 -35.7269,-0.0766479c-36.0693,8.59774 -40.109,40.5733 -44.6942,54.1646c-2.61464,7.75033 4.95212,18.4482 12.6968,20.024ZM180.868,281.251c1.01581,-1.31278 -0.919324,-10.444 -3.38243,-12.1604c-2.4631,-1.71638 -8.0327,0.549286 -11.3962,1.86207c-3.30594,1.29032 -9.66831,5.01217 -8.78476,6.01461c0.883555,1.00243 10.1589,-0.713948 14.0861,0c3.41091,0.620084 8.46148,5.59647 9.47729,4.28369ZM190.905,281.927c-1.01581,-1.4255 0.919324,-11.1203 3.38243,-12.8367c2.4631,-1.71638 8.0327,1.11287 11.3962,2.53837c3.26749,1.38481 9.66831,5.01217 8.78476,6.01461c-0.883555,1.00243 -10.1589,-0.713948 -14.0861,0c-3.41091,0.620084 -8.46148,5.70919 -9.47729,4.28369ZM340.535,225.701c0,-3.67289 -24.3475,5.82234 -30.1423,5.82234c0,0 -0.811566,-8.30673 -0.811566,-15.1906c0,-6.88388 50.9396,-17.4631 50.9396,19.4776c5.68434e-14,36.9407 -33.7829,35.4762 -39.5777,35.4762c-5.7948,0 -13.6974,-3.03734 -13.6974,-7.27896c5.68434e-14,-4.24162 25.9018,-3.41823 25.9018,-12.7571c1.13687e-13,-9.33892 -15.4339,-4.69636 -16.1741,-11.0372c-0.503225,-4.31089 23.5616,-10.8393 23.5616,-14.5122ZM255.029,243.578c-5.17749,0 -27.4255,3.54849 -31.065,5.52136c-3.27703,1.77641 5.50072,6.31587 9.22826,6.31587c5.17749,0 18.1973,-4.343 21.8367,-6.31587c1.61802,-0.877093 1.84045,-5.52136 0,-5.52136ZM118.962,243.501c5.17749,0 27.9107,3.69744 31.065,5.52136c3.15429,1.82392 -7.70752,5.42217 -12.1392,5.42217c-5.17749,0 -15.7714,-3.59825 -18.9257,-5.42217c-1.59327,-0.921283 -1.84045,-5.52136 0,-5.52136ZM26.5735,224.735c0,-3.96946 24.3128,6.7883 30.9125,6.7883c0,0 2.84729,-7.45379 2.84729,-18.3493c0,-10.8955 -47.903,-7.90432 -47.903,23.091c0,30.9953 24.375,36.3647 38.2423,36.3647c13.8673,0 19.2262,-9.92974 9.96048,-9.92974c-9.26575,0 -21.0324,1.41104 -21.0324,-6.40777c1.13687e-13,-7.8188 7.72187,-6.24888 7.72187,-13.8473c0,-7.59837 -20.749,-13.7405 -20.749,-17.71ZM185.999,243.907c10.161,0 17.6977,-15.4432 22.8566,-15.4432c5.15885,2.27374e-13 -3.53572,11.8507 1.62313,11.8507c5.15885,0 31.9454,-18.0809 50.5743,-18.0809c18.629,0 26.0849,23.1225 15.98,33.2273c-10.1048,10.1048 -31.9836,7.85868 -31.9836,15.5353c-1.7053e-13,7.67667 2.08432,13.2636 16.5913,13.2636c14.507,1.13687e-13 34.4896,-22.8363 34.4896,-48.3087c1.7053e-13,-25.4724 -16.0497,-43.9881 -49.648,-43.9881c-33.5983,0 -41.3849,25.1821 -62.8834,25.1821c-21.4985,2.27374e-13 -35.3521,-25.5879 -66.1762,-25.5879c-30.8242,1.13687e-13 -43.3132,7.75554 -43.3132,44.4314c-2.27374e-13,36.6759 30.1813,48.1945 38.2409,48.1945c8.05955,0 17.1973,-6.17665 17.1973,-14.0228c3.41061e-13,-11.9342 -23.2056,-3.97843 -34.0034,-14.7762c-10.7978,-10.7978 -6.21147,-33.9342 16.3335,-33.9342c22.5449,0 44.9573,18.7877 51.6346,18.7877c6.67737,1.13687e-13 -4.24267,-11.0391 1.21735,-11.0391c5.46002,0 11.1081,14.7083 21.2691,14.7083ZM322.287,177.739c-8.52144,-139.906 -182.888,-177.739 -182.888,-177.739c0,138.264 -94.8995,58.0769 -95.2883,195.631c0,0 -43.1578,-1.07508 -43.1578,41.6885c1.13687e-13,42.7636 40.8149,43.805 48.1227,44.608c3.92156,0.430887 -8.19236,14.0624 -6.95603,16.2992c1.23633,2.23677 14.374,-2.8786 14.374,-2.8786c0.753197,83.9076 148.036,126.595 148.036,126.595c-3.06954e-12,-46.7401 105.863,-76.0135 105.863,-123.716c0,0 9.94403,1.53236 14.9072,1.53236c4.96318,0 -10.5336,-17.8316 -3.01234,-17.8316c7.5213,0 50.4765,-5.21142 50.4765,-47.5693c0,-42.3579 -41.9628,-34.3004 -47.4641,-34.1758c-7.88812,0.178608 15.7371,-18.7026 15.2351,-22.4431c-0.502057,-3.74052 -18.2474,0 -18.2474,0Z" style="fill:#000;"/>
        <path d="M542.774,318.627c0,23.8119 16.7016,47.6868 54.3774,47.6868c37.6757,0 50.8719,-11.1693 50.8719,-44.6343c0,-33.4649 -2.47266,-59.8152 -57.2742,-59.8152c-54.8016,0 -47.9751,32.9508 -47.9751,56.7627ZM612.86,322.375c6.16001,0 11.9643,3.3498 11.9643,9.26921c0,5.91941 -3.38946,10.3559 -10.7968,10.3559c-7.40734,0 -12.1174,-4.4927 -12.1174,-10.501c0,-6.00825 4.78989,-9.12412 10.9499,-9.12412ZM667.282,286.702c17.1304,0 31.4527,-12.0635 31.4527,-37.5359c2.27374e-13,-25.4724 8.34796,-86.9584 -32.8122,-86.9584c-41.1602,0 -73.7897,42.7525 -78.787,47.7499c-4.99734,4.99734 -8.62295,3.83014 -11.3941,1.05902c-2.77112,-2.77112 -29.9026,-38.8655 -60.7268,-38.8655c-30.8242,0 -35.2638,49.8893 -35.2638,69.382c0,19.4926 15.0615,42.6575 33.7773,42.6575c18.7157,0 21.661,-3.74195 21.661,-11.5881c2.27374e-13,-11.9342 -31.1173,-12.3683 -36.124,-21.1379c-5.00666,-8.76961 -0.620998,-26.113 6.08404,-31.4798c6.70504,-5.36671 23.047,-3.25368 34.1462,-0.720487c13.563,3.09553 37.0711,19.2936 47.2321,19.2936c10.161,0 34.0112,-15.1198 49.7122,-18.6083c14.4979,-3.22122 36.3203,-7.09805 44.4937,-2.32288c8.17341,4.77517 7.43114,22.9613 4.54677,30.9739c-2.88437,8.01256 -2.26004,17.1015 -21.853,17.1015c-19.5929,0 -14.252,20.9196 3.64357,20.9993c0,0 -16.919,0.000468777 0.211383,0.000468777ZM598.37,282.091c-0.560144,-1.34955 2.13443,-8.76601 4.29376,-10.1027c2.15933,-1.33666 5.85161,1.12373 8.6622,2.0827c3.28755,1.12172 11.9466,3.64518 11.0631,4.64761c-0.883555,1.00243 -12.3612,0.804939 -16.3644,1.367c-2.61203,0.366738 -7.09448,3.35491 -7.65463,2.00536ZM588.333,282.782c0.787978,-1.46467 -3.80521,-10.5959 -6.57209,-12.1604c-2.76688,-1.56449 -6.79411,1.52243 -10.0292,2.7734c-3.59133,1.38872 -12.4023,4.55651 -11.5188,5.55894c0.883555,1.00243 12.1334,-0.182338 16.8201,0.455666c3.89489,0.530218 10.512,4.83703 11.3,3.37236ZM446.418,224.742c0,-3.96946 10.1104,9.223 16.7101,9.223c0,0 2.84729,-7.45379 2.84729,-18.3493c0,-10.8955 -35.7296,-7.90432 -35.7296,23.091c0,30.9953 12.2015,36.3647 26.0689,36.3647c13.8673,0 19.2262,-9.92974 9.96048,-9.92974c-9.26575,0 -19.0035,-0.212094 -19.0035,-8.0309c2.27374e-13,-7.8188 5.69295,-4.62575 5.69295,-12.2241c0,-7.59837 -6.54661,-16.1752 -6.54661,-20.1447ZM660.671,240.629c-4.24395,0 -29.3259,3.53938 -29.3259,7.95605c0,4.41668 4.85243,8.40275 14.4455,8.40275c9.59304,0 20.7933,-2.21111 20.7933,-8.75057c0,-6.53946 -1.66889,-7.60824 -5.91284,-7.60824ZM529.866,239.485c7.08126,0 27.238,4.12377 27.238,8.39158c0,4.26781 -8.90542,9.00994 -13.5743,9.00994c-4.66892,0 -23.2311,-1.07932 -23.2311,-6.85727c0,-5.77796 2.48613,-10.5442 9.56739,-10.5442ZM730.01,226.293c0,-4.14056 -7.25067,7.67271 -13.9759,7.67271c0,0 0.212964,-7.00159 0.212964,-16.5979c0,-9.59631 39.9317,-10.4453 39.9317,22.4418c0,32.8871 -27.7384,35.9482 -34.4637,35.9482c-6.72522,0 -10.9308,-9.71365 -3.55286,-9.71365c7.37798,0 14.9457,-0.110081 14.9457,-10.3225c0,-10.2124 -8.12978,-4.29058 -8.86997,-10.6314c-0.503225,-4.31089 5.77207,-14.6567 5.77207,-18.7972ZM725.261,201.001c1.85067,-155.642 -132.026,-150.071 -132.026,-150.071c0,0 8.15174,-15.1891 3.89716,-15.0249c-3.58119,0.138268 -22.792,18.0788 -48.2317,18.0788c-25.4397,1.13687e-13 -97.9469,22.7663 -91.8432,144.089c0,0 -40.7231,-1.07508 -40.7231,41.6885c2.27374e-13,42.7636 38.3819,47.5666 47.3112,47.8543c5.13891,96.6014 73.8379,98.4228 138.005,98.4228c64.1673,0 117.914,-39.49 118.112,-99.4415c7.5213,0 46.7525,-8.50807 46.7525,-45.493c-0.811566,-50.7815 -41.3102,-35.3443 -41.2536,-40.1028Z" style="fill:#000;"/>
        <path d="M542.774,318.627c0,23.8119 16.7016,47.6868 54.3774,47.6868c37.6757,0 50.8719,-11.1693 50.8719,-44.6343c0,-33.4649 -2.47266,-59.8152 -57.2742,-59.8152c-54.8016,0 -47.9751,32.9508 -47.9751,56.7627ZM612.86,322.375c6.16001,0 11.9643,3.3498 11.9643,9.26921c0,5.91941 -3.38946,10.3559 -10.7968,10.3559c-7.40734,0 -12.1174,-4.4927 -12.1174,-10.501c0,-6.00825 4.78989,-9.12412 10.9499,-9.12412ZM667.282,286.702c17.1304,0 31.4527,-12.0635 31.4527,-37.5359c2.27374e-13,-25.4724 8.34796,-86.9584 -32.8122,-86.9584c-41.1602,0 -73.7897,42.7525 -78.787,47.7499c-4.99734,4.99734 -8.62295,3.83014 -11.3941,1.05902c-2.77112,-2.77112 -29.9026,-38.8655 -60.7268,-38.8655c-30.8242,0 -35.2638,49.8893 -35.2638,69.382c0,19.4926 15.0615,42.6575 33.7773,42.6575c18.7157,0 21.661,-3.74195 21.661,-11.5881c2.27374e-13,-11.9342 -31.1173,-12.3683 -36.124,-21.1379c-5.00666,-8.76961 -0.620998,-26.113 6.08404,-31.4798c6.70504,-5.36671 23.047,-3.25368 34.1462,-0.720487c13.563,3.09553 37.0711,19.2936 47.2321,19.2936c10.161,0 34.0112,-15.1198 49.7122,-18.6083c14.4979,-3.22122 36.3203,-7.09805 44.4937,-2.32288c8.17341,4.77517 7.43114,22.9613 4.54677,30.9739c-2.88437,8.01256 -2.26004,17.1015 -21.853,17.1015c-19.5929,0 -14.252,20.9196 3.64357,20.9993c0,0 -16.919,0.000468777 0.211383,0.000468777ZM598.37,282.091c-0.560144,-1.34955 2.13443,-8.76601 4.29376,-10.1027c2.15933,-1.33666 5.85161,1.12373 8.6622,2.0827c3.28755,1.12172 11.9466,3.64518 11.0631,4.64761c-0.883555,1.00243 -12.3612,0.804939 -16.3644,1.367c-2.61203,0.366738 -7.09448,3.35491 -7.65463,2.00536ZM588.333,282.782c0.787978,-1.46467 -3.80521,-10.5959 -6.57209,-12.1604c-2.76688,-1.56449 -6.79411,1.52243 -10.0292,2.7734c-3.59133,1.38872 -12.4023,4.55651 -11.5188,5.55894c0.883555,1.00243 12.1334,-0.182338 16.8201,0.455666c3.89489,0.530218 10.512,4.83703 11.3,3.37236ZM446.418,224.742c0,-3.96946 10.1104,9.223 16.7101,9.223c0,0 2.84729,-7.45379 2.84729,-18.3493c0,-10.8955 -35.7296,-7.90432 -35.7296,23.091c0,30.9953 12.2015,36.3647 26.0689,36.3647c13.8673,0 19.2262,-9.92974 9.96048,-9.92974c-9.26575,0 -19.0035,-0.212094 -19.0035,-8.0309c2.27374e-13,-7.8188 5.69295,-4.62575 5.69295,-12.2241c0,-7.59837 -6.54661,-16.1752 -6.54661,-20.1447ZM660.671,240.629c-4.24395,0 -29.3259,3.53938 -29.3259,7.95605c0,4.41668 4.85243,8.40275 14.4455,8.40275c9.59304,0 20.7933,-2.21111 20.7933,-8.75057c0,-6.53946 -1.66889,-7.60824 -5.91284,-7.60824ZM529.866,239.485c7.08126,0 27.238,4.12377 27.238,8.39158c0,4.26781 -8.90542,9.00994 -13.5743,9.00994c-4.66892,0 -23.2311,-1.07932 -23.2311,-6.85727c0,-5.77796 2.48613,-10.5442 9.56739,-10.5442ZM730.01,226.293c0,-4.14056 -7.25067,7.67271 -13.9759,7.67271c0,0 0.212964,-7.00159 0.212964,-16.5979c0,-9.59631 39.9317,-10.4453 39.9317,22.4418c0,32.8871 -27.7384,35.9482 -34.4637,35.9482c-6.72522,0 -10.9308,-9.71365 -3.55286,-9.71365c7.37798,0 14.9457,-0.110081 14.9457,-10.3225c0,-10.2124 -8.12978,-4.29058 -8.86997,-10.6314c-0.503225,-4.31089 5.77207,-14.6567 5.77207,-18.7972ZM725.261,201.001c1.85067,-155.642 -132.026,-150.071 -132.026,-150.071c0,0 8.15174,-15.1891 3.89716,-15.0249c-3.58119,0.138268 -22.792,18.0788 -48.2317,18.0788c-25.4397,1.13687e-13 -97.9469,22.7663 -91.8432,144.089c0,0 -40.7231,-1.07508 -40.7231,41.6885c2.27374e-13,42.7636 38.3819,47.5666 47.3112,47.8543c5.13891,96.6014 73.8379,98.4228 138.005,98.4228c64.1673,0 117.914,-39.49 118.112,-99.4415c7.5213,0 46.7525,-8.50807 46.7525,-45.493c-0.811566,-50.7815 -41.3102,-35.3443 -41.2536,-40.1028Z" style="fill:#000;"/>
        <path d="M1039.44,322.548c0,0 -26.4343,10.5578 -43.6097,10.5793c-17.3102,0.0215915 -47.2151,-10.5793 -47.2151,-10.5793c-11.8097,0 22.7735,28.5044 43.318,29.0677c25.5843,0.701439 56.6963,-29.0677 47.5068,-29.0677ZM932.082,285.147c2.27374e-13,18.0535 36.7236,28.3152 59.793,28.3152c23.0694,0 65.8031,-4.38309 65.8031,-25.6334c0,-21.2503 -9.15048,-37.0923 -42.9357,-44.0767c-11.6624,-2.41097 -24.1425,-2.838 -35.7269,-0.0766479c-36.0693,8.59774 -46.9335,23.4181 -46.9335,41.4716ZM1001.59,262.097c-0.175716,-1.4255 2.69583,-10.175 6.86461,-10.4991c4.17156,-0.324353 17.989,7.12748 18.1647,8.55298c0.175716,1.4255 -12.9389,-0.324353 -17.1104,0c-2.71,0.210712 -7.74319,3.37161 -7.91891,1.94612ZM989.22,261.421c0.00769754,-1.4808 -4.85455,-10.5066 -8.65192,-10.8309c-3.79736,-0.324353 -18.157,7.90805 -14.1323,8.88479c1.43905,0.349233 10.2887,-0.324353 14.0861,0c2.96027,0.252852 8.6904,3.42691 8.6981,1.94612ZM847.177,210.641c0,-3.96946 11.2657,0.329951 17.8654,0.329951c0,0 5.55627,-9.10612 -0.168774,-14.8312c-5.72505,-5.72505 -40.313,-6.33881 -40.313,24.6565c0,30.9953 28.2991,40.5063 42.1664,40.5063c13.8673,0 12.3027,-16.0959 3.037,-16.0959c-9.26575,0 -26.1313,-1.56331 -26.1313,-9.38212c2.27374e-13,-7.8188 12.8208,-3.27453 12.8208,-10.8729c0,-7.59837 -9.27652,-10.3412 -9.27652,-14.3107ZM947.573,213.998c9.71209,0 15.0915,8.97574 15.0915,14.415c0,5.43931 -11.1071,8.92853 -19.152,8.92853c-8.04486,0 -16.4818,-4.86092 -16.4818,-12.941c0,-8.08005 10.8301,-10.4026 20.5422,-10.4026ZM1044.46,214.519c12.9918,0 15.8251,5.18518 15.8251,12.0165c0,6.83128 -7.01496,9.72961 -13.9324,9.72961c-6.9174,0 -17.6249,-2.18258 -17.6249,-9.25875c0,-7.07617 2.74023,-12.4873 15.7321,-12.4873ZM1139.89,206.508c0,-3.67289 -13,-0.351024 -18.7948,-0.351024c0,0 -6.14912,-6.179 -0.811566,-11.5165c5.33755,-5.33755 41.3419,-7.49063 45.5408,23.6765c4.9322,36.6099 -28.3241,46.0413 -37.8831,46.0413c-9.55905,0 -12.002,-16.2695 -2.12023,-16.2695c9.88175,1.13687e-13 18.109,-6.17006 18.109,-15.509c4.54747e-13,-9.33892 -17.0886,-3.51914 -17.8288,-9.85999c-0.257018,-2.20176 13.7887,-12.5389 13.7887,-16.2118ZM995.909,207.713c22.1526,0 30.8373,-12.111 50.6902,-12.111c19.8529,0 37.4379,5.12953 37.4379,23.9037c0,18.7742 -19.8157,23.604 -19.8157,33.1363c0,9.53222 42.1635,3.06208 42.1635,-30.4958c0,-33.5579 -15.8781,-51.4826 -43.4766,-51.4826c-27.5985,0 -44.5732,13.4875 -66.0717,13.4875c-21.4985,3.41061e-13 -36.5031,-14.7086 -67.3273,-14.7086c-30.8242,2.27374e-13 -47.4321,25.4334 -47.4321,53.9654c0,28.532 41.0175,40.6723 41.0175,26.1425c0,-14.5298 -17.5914,-11.1049 -17.5914,-31.3789c0,-10.1568 8.21998,-26.6091 36.5828,-26.6091c28.3628,0 31.6701,16.1507 53.8228,16.1507ZM1129.14,177.403c42.0029,-154.9 -142.065,-93.7407 -194.415,-136.145c-23.0194,-18.646 -45.1695,31.8721 -40.6063,63.3391c0,0 -19.0814,-1.75728 -28.7797,7.03621c-15.3743,13.94 -14.4016,33.2428 -12.1013,66.5042c0,0 -41.0583,1.54925 -41.0583,44.3129c4.54747e-13,42.7636 48.3359,49.6014 55.6437,50.4043c6.20481,78.5976 108.625,93.6082 116.319,124.196c0,0 132.92,-40.1096 134.097,-119.405c20.6429,0.524866 62.0763,-9.18497 62.0763,-57.6322c0,-48.4473 -52.616,-37.3004 -51.1759,-42.6113Z" style="fill:#000;"/>
    </g>
</svg>
