<?xml version="1.0" standalone="no"?><!DOCTYPE svg PUBLIC "-//W3C//DTD SVG 1.1//EN" "http://www.w3.org/Graphics/SVG/1.1/DTD/svg11.dtd"><svg width="100%" height="100%" viewBox="0 0 1180 423" version="1.1" xmlns="http://www.w3.org/2000/svg" xmlns:xlink="http://www.w3.org/1999/xlink" xml:space="preserve" style="fill-rule:evenodd;clip-rule:evenodd;stroke-linejoin:round;stroke-miterlimit:1.41421;"><g id="Monkeys"><path d="M321.576,178.404c-8.52144,-139.906 -182.888,-177.739 -182.888,-177.739c0,138.264 -94.8995,58.0769 -95.2883,195.631c0,0 -43.1578,-1.07508 -43.1578,41.6885c1.13687e-13,42.7636 40.8149,43.805 48.1227,44.608c3.92156,0.430887 -8.19236,14.0624 -6.95603,16.2992c1.23633,2.23677 14.374,-2.8786 14.374,-2.8786c0.753197,83.9076 148.036,126.595 148.036,126.595c-3.06954e-12,-46.7401 105.863,-76.0135 105.863,-123.716c0,0 9.94403,1.53236 14.9072,1.53236c4.96318,0 -10.5336,-17.8316 -3.01234,-17.8316c7.5213,0 50.4765,-5.21142 50.4765,-47.5693c0,-42.3579 -41.9628,-34.3004 -47.4641,-34.1758c-7.88812,0.178608 15.7371,-18.7026 15.2351,-22.4431c-0.502057,-3.74052 -18.2474,0 -18.2474,0Z" style="fill:#000;"/><path d="M542.063,319.291c0,23.8119 16.7016,47.6868 54.3774,47.6868c37.6757,0 50.8719,-11.1693 50.8719,-44.6343c0,-33.4649 -2.47266,-59.8152 -57.2742,-59.8152c-54.8016,0 -47.9751,32.9508 -47.9751,56.7627ZM612.149,323.04c6.16001,0 11.9643,3.3498 11.9643,9.26921c0,5.91941 -3.38946,10.3559 -10.7968,10.3559c-7.40734,0 -12.1174,-4.4927 -12.1174,-10.501c0,-6.00825 4.78989,-9.12412 10.9499,-9.12412ZM666.571,287.366c17.1304,0 31.4527,-12.0635 31.4527,-37.5359c2.27374e-13,-25.4724 8.34796,-86.9584 -32.8122,-86.9584c-41.1602,0 -73.7897,42.7525 -78.787,47.7499c-4.99734,4.99734 -8.62295,3.83014 -11.3941,1.05902c-2.77112,-2.77112 -29.9026,-38.8655 -60.7268,-38.8655c-30.8242,0 -35.2638,49.8893 -35.2638,69.382c0,19.4926 15.0615,42.6575 33.7773,42.6575c18.7157,0 21.661,-3.74195 21.661,-11.5881c2.27374e-13,-11.9342 -31.1173,-12.3683 -36.124,-21.1379c-5.00666,-8.76961 -0.620998,-26.113 6.08404,-31.4798c6.70504,-5.36671 23.047,-3.25368 34.1462,-0.720487c13.563,3.09553 37.0711,19.2936 47.2321,19.2936c10.161,0 34.0112,-15.1198 49.7122,-18.6083c14.4979,-3.22122 36.3203,-7.09805 44.4937,-2.32288c8.17341,4.77517 7.43114,22.9613 4.54677,30.9739c-2.88437,8.01256 -2.26004,17.1015 -21.853,17.1015c-19.5929,0 -14.252,20.9196 3.64357,20.9993c0,0 -16.919,0.000468777 0.211383,0.000468777ZM597.659,282.756c-0.560144,-1.34955 2.13443,-8.76601 4.29376,-10.1027c2.15933,-1.33666 5.85161,1.12373 8.6622,2.0827c3.28755,1.12172 11.9466,3.64518 11.0631,4.64761c-0.883555,1.00243 -12.3612,0.804939 -16.3644,1.367c-2.61203,0.366738 -7.09448,3.35491 -7.65463,2.00536ZM587.622,283.446c0.787978,-1.46467 -3.80521,-10.5959 -6.57209,-12.1604c-2.76688,-1.56449 -6.79411,1.52243 -10.0292,2.7734c-3.59133,1.38872 -12.4023,4.55651 -11.5188,5.55894c0.883555,1.00243 12.1334,-0.182338 16.8201,0.455666c3.89489,0.530218 10.512,4.83703 11.3,3.37236ZM445.707,225.407c0,-3.96946 10.1104,9.223 16.7101,9.223c0,0 2.84729,-7.45379 2.84729,-18.3493c0,-10.8955 -35.7296,-7.90432 -35.7296,23.091c0,30.9953 12.2015,36.3647 26.0689,36.3647c13.8673,0 19.2262,-9.92974 9.96048,-9.92974c-9.26575,0 -19.0035,-0.212094 -19.0035,-8.0309c2.27374e-13,-7.8188 5.69295,-4.62575 5.69295,-12.2241c0,-7.59837 -6.54661,-16.1752 -6.54661,-20.1447ZM659.96,241.293c-4.24395,0 -29.3259,3.53938 -29.3259,7.95605c0,4.41668 4.85243,8.40275 14.4455,8.40275c9.59304,0 20.7933,-2.21111 20.7933,-8.75057c0,-6.53946 -1.66889,-7.60824 -5.91284,-7.60824ZM529.155,240.15c7.08126,0 27.238,4.12377 27.238,8.39158c0,4.26781 -8.90542,9.00994 -13.5743,9.00994c-4.66892,0 -23.2311,-1.07932 -23.2311,-6.85727c0,-5.77796 2.48613,-10.5442 9.56739,-10.5442ZM729.299,226.957c0,-4.14056 -7.25067,7.67271 -13.9759,7.67271c0,0 0.212964,-7.00159 0.212964,-16.5979c0,-9.59631 39.9317,-10.4453 39.9317,22.4418c0,32.8871 -27.7384,35.9482 -34.4637,35.9482c-6.72522,0 -10.9308,-9.71365 -3.55286,-9.71365c7.37798,0 14.9457,-0.110081 14.9457,-10.3225c0,-10.2124 -8.12978,-4.29058 -8.86997,-10.6314c-0.503225,-4.31089 5.77207,-14.6567 5.77207,-18.7972ZM724.55,201.666c1.85067,-155.642 -132.026,-150.071 -132.026,-150.071c0,0 8.15174,-15.1891 3.89716,-15.0249c-3.58119,0.138268 -22.792,18.0788 -48.2317,18.0788c-25.4397,1.13687e-13 -97.9469,22.7663 -91.8432,144.089c0,0 -40.7231,-1.07508 -40.7231,41.6885c2.27374e-13,42.7636 38.3819,47.5666 47.3112,47.8543c5.13891,96.6014 73.8379,98.4228 138.005,98.4228c64.1673,0 117.914,-39.49 118.112,-99.4415c7.5213,0 46.7525,-8.50807 46.7525,-45.493c-0.811566,-50.7815 -41.3102,-35.3443 -41.2536,-40.1028Z" style="fill:#000;"/><path d="M724.55,201.666c1.85067,-155.642 -132.026,-150.071 -132.026,-150.071c0,0 8.15174,-15.1891 3.89716,-15.0249c-3.58119,0.138268 -22.792,18.0788 -48.2317,18.0788c-25.4397,1.13687e-13 -97.9469,22.7663 -91.8432,144.089c0,0 -40.7231,-1.07508 -40.7231,41.6885c2.27374e-13,42.7636 38.3819,47.5666 47.3112,47.8543c5.13891,96.6014 73.8379,98.4228 138.005,98.4228c64.1673,0 117.914,-39.49 118.112,-99.4415c7.5213,0 46.7525,-8.50807 46.7525,-45.493c-0.811566,-50.7815 -41.3102,-35.3443 -41.2536,-40.1028Z" style="fill:#000;"/><path d="M1128.43,178.068c42.0029,-154.9 -142.065,-93.7407 -194.415,-136.145c-23.0194,-18.646 -45.1695,31.8721 -40.6063,63.3391c0,0 -19.0814,-1.75728 -28.7797,7.03621c-15.3743,13.94 -14.4016,33.2428 -12.1013,66.5042c0,0 -41.0583,1.54925 -41.0583,44.3129c4.54747e-13,42.7636 48.3359,49.6014 55.6437,50.4043c6.20481,78.5976 108.625,93.6082 116.319,124.196c0,0 132.92,-40.1096 134.097,-119.405c20.6429,0.524866 62.0763,-9.18497 62.0763,-57.6322c0,-48.4473 -52.616,-37.3004 -51.1759,-42.6113Z" style="fill:#000;"/></g></svg>